<svg width="127" height="40" viewBox="0 0 127 40" fill="none" xmlns="http://www.w3.org/2000/svg">
<g clip-path="url(#clip0_294_8)">
<path d="M30.5538 0H9.44621C4.22661 0 0 4.22661 0 9.44621V30.5538C0 35.7734 4.22661 40 9.44621 40H30.5538C35.7734 40 40 35.7734 40 30.5538V9.44621C40 4.22661 35.7734 0 30.5538 0Z" fill="url(#paint0_linear_294_8)"/>
<path d="M27.7532 9.54834H12.2216C11.7124 9.54834 11.2032 9.75203 10.8213 10.1085L5.14335 15.6336C4.2522 16.3975 4.20127 17.7469 5.0415 18.5617L18.8162 32.2345C19.4527 32.8711 20.5221 32.8711 21.1586 32.2345L34.9333 18.5617C35.7481 17.7469 35.7226 16.3975 34.8314 15.6336L29.1281 10.1085C28.7716 9.72657 28.2624 9.54834 27.7532 9.54834ZM12.9091 11.6871H27.0657C27.524 11.6871 27.9314 11.8653 28.2624 12.1963L32.0307 16.041H25.9454C25.1052 16.041 24.3413 16.5757 24.0612 17.3905L23.5775 18.7909C23.3483 19.4529 22.7118 19.9112 21.9989 19.9112H17.9759C17.263 19.9112 16.6265 19.4529 16.3973 18.7909L15.9136 17.365C15.6335 16.5757 14.8696 16.0156 14.0294 16.0156H7.99504L11.7124 12.1963C12.018 11.8653 12.4508 11.6871 12.9091 11.6871ZM7.99504 18.1543H12.6799C13.3929 18.1543 14.0294 18.6126 14.2586 19.3001L17.1102 26.3275C17.3394 26.8622 16.6265 27.3205 16.2191 26.8876L7.99504 18.1543ZM19.4782 28.7972L17.5431 22.0245H22.4317L20.5221 28.7972C20.3693 29.3065 19.6309 29.3065 19.4782 28.7972ZM27.2948 18.1543H32.0307L23.7557 26.8876C23.3483 27.3205 22.6609 26.8622 22.8645 26.3275L25.7162 19.3256C25.9199 18.6381 26.5819 18.1543 27.2948 18.1543Z" fill="white"/>
</g>
<g clip-path="url(#clip1_294_8)">
<path fill-rule="evenodd" clip-rule="evenodd" d="M48.5312 14.1823H53.3137V27.3267H56.1021V14.1823H60.8845V11.6792H48.5312V14.1823ZM117.258 16.9934V11.6824V11.6792H114.473V22.0157C114.473 22.8814 114.625 23.6596 114.923 24.3535C115.222 25.0473 115.637 25.6471 116.162 26.1529C116.687 26.6587 117.319 27.0478 118.059 27.3267C118.798 27.6055 119.599 27.7449 120.461 27.7449C121.353 27.7449 122.173 27.5925 122.929 27.2942C123.681 26.9959 124.333 26.5744 124.881 26.033C125.428 25.4915 125.856 24.856 126.164 24.1232C126.473 23.3937 126.625 22.5896 126.625 21.711C126.625 20.8323 126.479 20.0249 126.187 19.2857C125.895 18.5497 125.497 17.9142 124.991 17.3889C124.485 16.8604 123.879 16.4454 123.169 16.1374C122.459 15.8294 121.697 15.677 120.876 15.677C120.497 15.677 120.143 15.7062 119.813 15.7645C119.485 15.8229 119.168 15.9104 118.86 16.0272C118.555 16.1471 118.263 16.2833 117.994 16.4454C117.721 16.6075 117.478 16.7891 117.258 16.9934ZM122.899 19.1398C123.191 19.464 123.421 19.8401 123.59 20.2714C123.759 20.7026 123.843 21.1825 123.843 21.7077C123.843 22.233 123.759 22.7128 123.59 23.1441C123.421 23.5753 123.185 23.9482 122.886 24.2627C122.585 24.5772 122.235 24.8236 121.833 24.9987C121.431 25.1738 120.99 25.2613 120.507 25.2613C120.007 25.2613 119.553 25.1835 119.145 25.0214C118.733 24.8593 118.383 24.6226 118.091 24.3081C117.799 23.9935 117.569 23.6142 117.4 23.1765C117.232 22.7388 117.148 22.2492 117.148 21.7077C117.148 21.1825 117.232 20.7026 117.4 20.2714C117.569 19.8401 117.799 19.4608 118.091 19.1398C118.383 18.8188 118.736 18.5691 119.145 18.3941C119.557 18.219 120.011 18.1314 120.507 18.1314C120.99 18.1314 121.437 18.219 121.846 18.3941C122.254 18.5691 122.608 18.8188 122.899 19.1398ZM110.368 27.3265H113.156H113.159V16.0724H110.351V20.4398C110.351 21.2439 110.27 21.9605 110.108 22.5895C109.946 23.2185 109.713 23.7502 109.405 24.1814C109.097 24.6159 108.724 24.9434 108.286 25.1704C107.848 25.3973 107.349 25.5108 106.795 25.5108C106.312 25.5108 105.884 25.4168 105.511 25.2255C105.138 25.0342 104.823 24.7521 104.567 24.3792C104.311 24.0064 104.12 23.5395 103.987 22.9753C103.854 22.4111 103.789 21.7562 103.789 21.0105V16.0724H101.023V21.1628C101.023 22.0837 101.14 22.9429 101.373 23.7405C101.607 24.5381 101.954 25.232 102.414 25.8253C102.875 26.4187 103.455 26.892 104.159 27.2422C104.859 27.5924 105.673 27.7675 106.594 27.7675C107.323 27.7675 108.03 27.6086 108.711 27.2941C109.392 26.9796 109.943 26.5581 110.368 26.0328V27.3265ZM87.5046 11.6823H90.2703V17.2332C90.708 16.7371 91.2235 16.3545 91.8169 16.0919C92.4102 15.8292 93.1365 15.6963 93.999 15.6963C94.9198 15.6963 95.7336 15.8487 96.4339 16.1567C97.1375 16.4647 97.7244 16.9025 98.201 17.4731C98.6776 18.0438 99.031 18.7279 99.2645 19.5255C99.4979 20.3231 99.6147 21.2277 99.6147 22.2361V27.3265H96.8944V22.3009C96.8944 21.6849 96.836 21.1272 96.7193 20.6214C96.6026 20.1156 96.4177 19.6844 96.1713 19.3277C95.9217 18.9711 95.6039 18.6955 95.2181 18.5042C94.829 18.3129 94.3718 18.2188 93.8466 18.2188C93.2597 18.2188 92.7442 18.3258 92.3 18.5366C91.8525 18.7473 91.4829 19.0489 91.1911 19.4379C90.8993 19.827 90.6723 20.2972 90.5102 20.8548C90.3481 21.4125 90.267 22.0318 90.267 22.7192V27.3265H87.5013V11.6823H87.5046ZM76.7753 16.0695H74.0096H74.0063V27.3236H76.7721V22.9789C76.7721 22.1748 76.8661 21.4777 77.0476 20.8844C77.2325 20.291 77.4854 19.8047 77.8063 19.4253C78.1306 19.0427 78.5067 18.7606 78.9379 18.5791C79.3691 18.3943 79.8425 18.3035 80.3548 18.3035C80.7342 18.3035 81.107 18.3813 81.4734 18.5337C81.8366 18.6893 82.1673 18.9325 82.4591 19.2697C82.7541 19.6069 82.9876 20.0349 83.1627 20.5536C83.3378 21.0757 83.4253 21.6982 83.4253 22.431V27.3236H86.1456V22.2559C86.1456 21.4096 86.0289 20.5861 85.7954 19.7885C85.562 18.9909 85.2086 18.2873 84.7417 17.681C84.2748 17.0746 83.6912 16.5883 82.9973 16.2219C82.3002 15.8555 81.4864 15.674 80.5494 15.674C79.8166 15.674 79.113 15.8328 78.4321 16.1473C77.7512 16.4618 77.2 16.8833 76.7753 17.4086V16.0695ZM72.1977 24.1332C71.8994 24.8724 71.4747 25.5079 70.9267 26.0429C70.3788 26.5779 69.7303 26.9897 68.9846 27.2815C68.2388 27.5733 67.4121 27.7192 66.5042 27.7192C65.6126 27.7192 64.789 27.5733 64.0368 27.2815C63.2846 26.9897 62.6361 26.5746 62.0946 26.0429C61.5532 25.5079 61.1317 24.8724 60.8334 24.1332C60.5351 23.3939 60.3827 22.5801 60.3827 21.6852C60.3827 20.8065 60.5351 19.9992 60.8431 19.26C61.1511 18.5207 61.5694 17.8852 62.1044 17.3502C62.6393 16.8152 63.2813 16.4035 64.0368 16.1117C64.789 15.8198 65.6126 15.674 66.5042 15.674C67.4121 15.674 68.2388 15.8198 68.9846 16.1117C69.7303 16.4035 70.3788 16.8185 70.9267 17.3502C71.4747 17.8852 71.8994 18.5207 72.1977 19.26C72.496 19.9992 72.6484 20.813 72.6484 21.7079C72.6484 22.5866 72.4993 23.3972 72.1977 24.1332ZM69.7952 20.1613C69.6201 19.7009 69.3737 19.3054 69.0592 18.9779C68.7447 18.6472 68.3685 18.3878 67.9276 18.1997C67.4899 18.0084 67.0132 17.9144 66.501 17.9144C65.9887 17.9144 65.5121 18.0084 65.0743 18.1997C64.6366 18.391 64.2638 18.6504 63.9557 18.9779C63.6477 19.3054 63.4078 19.7009 63.2327 20.1613C63.0576 20.6217 62.9701 21.1308 62.9701 21.6852C62.9701 22.2559 63.0544 22.7682 63.223 23.2221C63.3916 23.676 63.6315 24.0716 63.946 24.4055C64.2605 24.7427 64.6366 25.0054 65.0776 25.1967C65.5153 25.388 65.9919 25.482 66.5042 25.482C67.0165 25.482 67.4899 25.388 67.9308 25.1967C68.3685 25.0054 68.7479 24.7427 69.0624 24.4055C69.3769 24.0683 69.6233 23.6728 69.7984 23.2221C69.9735 22.7682 70.061 22.2559 70.061 21.6852C70.0578 21.1308 69.9702 20.625 69.7952 20.1613Z" fill="black"/>
</g>
<defs>
<linearGradient id="paint0_linear_294_8" x1="4.59061" y1="35.7772" x2="32.5416" y2="7.16155" gradientUnits="userSpaceOnUse">
<stop stop-color="#1A6DFD"/>
<stop offset="1" stop-color="#C622FD"/>
</linearGradient>
<clipPath id="clip0_294_8">
<rect width="40" height="40" fill="white"/>
</clipPath>
<clipPath id="clip1_294_8">
<rect width="78.625" height="17" fill="white" transform="translate(48 11.5)"/>
</clipPath>
</defs>
</svg>
